<?xml version="1.0" encoding="UTF-8"?>
<svg xmlns="http://www.w3.org/2000/svg" xmlns:xlink="http://www.w3.org/1999/xlink" viewBox="0 0 30 30" width="30px" height="30px">
<g id="surface26613826">
<path style=" stroke:none;fill-rule:nonzero;fill:rgb(100%,100%,100%);fill-opacity:1;" d="M 4.875 28.125 L 4.875 1.875 L 18.59375 1.875 L 25.125 8.40625 L 25.125 28.125 Z M 4.875 28.125 "/>
<path style=" stroke:none;fill-rule:nonzero;fill:rgb(47.058824%,54.509807%,61.176473%);fill-opacity:1;" d="M 18.441406 2.25 L 24.75 8.558594 L 24.75 27.75 L 5.25 27.75 L 5.25 2.25 L 18.441406 2.25 M 18.75 1.5 L 4.5 1.5 L 4.5 28.5 L 25.5 28.5 L 25.5 8.25 Z M 18.75 1.5 "/>
<path style=" stroke:none;fill-rule:nonzero;fill:rgb(100%,100%,100%);fill-opacity:1;" d="M 18.375 8.625 L 18.375 1.875 L 18.59375 1.875 L 25.125 8.40625 L 25.125 8.625 Z M 18.375 8.625 "/>
<path style=" stroke:none;fill-rule:nonzero;fill:rgb(47.058824%,54.509807%,61.176473%);fill-opacity:1;" d="M 18.75 2.558594 L 24.441406 8.25 L 18.75 8.25 L 18.75 2.558594 M 18.75 1.5 L 18 1.5 L 18 9 L 25.5 9 L 25.5 8.25 Z M 9 12 L 21 12 L 21 12.75 L 9 12.75 Z M 9 14.25 L 18 14.25 L 18 15 L 9 15 Z M 9 16.5 L 21 16.5 L 21 17.25 L 9 17.25 Z M 9 18.75 L 18 18.75 L 18 19.5 L 9 19.5 Z M 9 21 L 21 21 L 21 21.75 L 9 21.75 Z M 9 21 "/>
<path style=" stroke:none;fill-rule:nonzero;fill:rgb(72.941178%,87.843138%,74.117649%);fill-opacity:1;" d="M 29.625 23.25 C 29.625 26.769531 26.769531 29.625 23.25 29.625 C 19.730469 29.625 16.875 26.769531 16.875 23.25 C 16.875 19.730469 19.730469 16.875 23.25 16.875 C 26.769531 16.875 29.625 19.730469 29.625 23.25 Z M 29.625 23.25 "/>
<path style=" stroke:none;fill-rule:nonzero;fill:rgb(36.862746%,61.176473%,46.27451%);fill-opacity:1;" d="M 23.25 17.25 C 26.550781 17.25 29.25 19.949219 29.25 23.25 C 29.25 26.550781 26.550781 29.25 23.25 29.25 C 19.949219 29.25 17.25 26.550781 17.25 23.25 C 17.25 19.949219 19.949219 17.25 23.25 17.25 M 23.25 16.5 C 19.5 16.5 16.5 19.5 16.5 23.25 C 16.5 27 19.5 30 23.25 30 C 27 30 30 27 30 23.25 C 30 19.5 27 16.5 23.25 16.5 Z M 23.25 16.5 "/>
<path style=" stroke:none;fill-rule:nonzero;fill:rgb(100%,100%,100%);fill-opacity:1;" d="M 22.5 19.5 L 24 19.5 L 24 27 L 22.5 27 Z M 22.5 19.5 "/>
<path style=" stroke:none;fill-rule:nonzero;fill:rgb(100%,100%,100%);fill-opacity:1;" d="M 19.5 22.5 L 27 22.5 L 27 24 L 19.5 24 Z M 19.5 22.5 "/>
</g>
</svg>
